<?xml version="1.0" encoding="UTF-8" standalone="no"?>
<!-- Generator: Adobe Illustrator 16.0.0, SVG Export Plug-In . SVG Version: 6.00 Build 0)  -->

<svg
   xmlns:dc="http://purl.org/dc/elements/1.1/"
   xmlns:cc="http://creativecommons.org/ns#"
   xmlns:rdf="http://www.w3.org/1999/02/22-rdf-syntax-ns#"
   xmlns:svg="http://www.w3.org/2000/svg"
   xmlns="http://www.w3.org/2000/svg"
   xmlns:xlink="http://www.w3.org/1999/xlink"
   xmlns:sodipodi="http://sodipodi.sourceforge.net/DTD/sodipodi-0.dtd"
   xmlns:inkscape="http://www.inkscape.org/namespaces/inkscape"
   version="1.1"
   id="Capa_1"
   x="0px"
   y="0px"
   width="612px"
   height="612px"
   viewBox="0 0 612 612"
   style="enable-background:new 0 0 612 612;"
   xml:space="preserve"
   inkscape:version="0.91 r13725"
   sodipodi:docname="boat17.svg"><metadata
     id="metadata41"><rdf:RDF><cc:Work
         rdf:about=""><dc:format>image/svg+xml</dc:format><dc:type
           rdf:resource="http://purl.org/dc/dcmitype/StillImage" /></cc:Work></rdf:RDF></metadata><defs
     id="defs39"><linearGradient
       inkscape:collect="always"
       id="linearGradient4834"><stop
         style="stop-color:#5599ff;stop-opacity:1;"
         offset="0"
         id="stop4836" /><stop
         style="stop-color:#5599ff;stop-opacity:0;"
         offset="1"
         id="stop4838" /></linearGradient><linearGradient
       inkscape:collect="always"
       xlink:href="#linearGradient4834"
       id="linearGradient4840"
       x1="3.8406372"
       y1="311.18646"
       x2="610.75256"
       y2="311.18646"
       gradientUnits="userSpaceOnUse"
       gradientTransform="translate(3.8898627,-618.48306)" /></defs><sodipodi:namedview
     pagecolor="#ffffff"
     bordercolor="#666666"
     borderopacity="1"
     objecttolerance="10"
     gridtolerance="10"
     guidetolerance="10"
     inkscape:pageopacity="0"
     inkscape:pageshadow="2"
     inkscape:window-width="1600"
     inkscape:window-height="838"
     id="namedview37"
     showgrid="false"
     inkscape:zoom="0.38562092"
     inkscape:cx="-87.975347"
     inkscape:cy="306"
     inkscape:window-x="-8"
     inkscape:window-y="-8"
     inkscape:window-maximized="1"
     inkscape:current-layer="g3" /><g
     id="g3"><ellipse
       style="fill:url(#linearGradient4840);fill-opacity:1"
       id="path4832"
       cx="311.18646"
       cy="-307.2966"
       rx="303.45596"
       ry="307.34579"
       transform="matrix(0,1,-1,0,0,0)" /><path
       d="m 199.944,36.46 c 0,-20.136 16.323,-36.46 36.46,-36.46 16.756,0 30.724,11.368 34.99,26.766 0.497,-0.026 0.965,-0.148 1.469,-0.148 15.137,0 27.407,12.271 27.407,27.408 0,3.692 -0.753,7.204 -2.076,10.418 l 0.011,-0.001 c 9.384,0 16.991,7.606 16.991,16.99 0,9.383 -7.606,16.991 -16.991,16.991 -9.383,0 -16.99,-7.606 -16.99,-16.991 0,-0.507 0.105,-0.985 0.149,-1.481 -2.691,0.883 -5.514,1.481 -8.5,1.481 -9.152,0 -17.205,-4.531 -22.183,-11.425 -4.386,1.869 -9.208,2.912 -14.277,2.912 -20.136,0 -36.46,-16.324 -36.46,-36.46 z"
       id="path3393"
       style="fill:#ffffff" /><path
       d="m 216.492,217.077 -49.937,0 c -8.761,0 -15.863,7.102 -15.863,15.863 l 0,106.207 155.305,-74.393 155.311,74.393 0,-106.207 c 0,-8.761 -7.102,-15.863 -15.862,-15.863 l -49.938,0"
       id="path3391"
       style="fill:#ffffff" /><path
       d="m 395.508,201.214 0,-9.721 c 0,-8.761 -7.102,-15.863 -15.862,-15.863 l -38.529,0 -6.889,-63.13 -56.455,0 -6.888,63.13 -38.529,0 c -8.761,0 -15.863,7.102 -15.863,15.863 l 0,9.721 179.015,0 z"
       id="path3389"
       style="fill:#ffffff" /><path
       d="M 306,282.345 75.247,392.877 143.578,592.215 c 31.721,-14.751 72.487,-28.507 114.275,-28.507 67.151,0 121.121,31.984 192.013,48.292 l 11.775,0 L 536.753,392.877 306,282.345 Z"
       id="path5"
       style="fill:#ffffff" /></g><g
     id="g7" /><g
     id="g9" /><g
     id="g11" /><g
     id="g13" /><g
     id="g15" /><g
     id="g17" /><g
     id="g19" /><g
     id="g21" /><g
     id="g23" /><g
     id="g25" /><g
     id="g27" /><g
     id="g29" /><g
     id="g31" /><g
     id="g33" /><g
     id="g35" /></svg>