<?xml version="1.0" encoding="UTF-8" standalone="no"?>
<!-- Created with Inkscape (http://www.inkscape.org/) -->

<svg
   xmlns:dc="http://purl.org/dc/elements/1.1/"
   xmlns:cc="http://creativecommons.org/ns#"
   xmlns:rdf="http://www.w3.org/1999/02/22-rdf-syntax-ns#"
   xmlns:svg="http://www.w3.org/2000/svg"
   xmlns="http://www.w3.org/2000/svg"
   xmlns:sodipodi="http://sodipodi.sourceforge.net/DTD/sodipodi-0.dtd"
   xmlns:inkscape="http://www.inkscape.org/namespaces/inkscape"
   width="36.160381mm"
   height="40.922222mm"
   viewBox="0 0 128.12734 145"
   id="svg3397"
   version="1.1"
   inkscape:version="0.91 r13725"
   sodipodi:docname="Chtulhu_icon.svg">
  <defs
     id="defs3399" />
  <sodipodi:namedview
     id="base"
     pagecolor="#ffffff"
     bordercolor="#666666"
     borderopacity="1.0"
     inkscape:pageopacity="0.0"
     inkscape:pageshadow="2"
     inkscape:zoom="2.8"
     inkscape:cx="56.001231"
     inkscape:cy="80.648248"
     inkscape:document-units="px"
     inkscape:current-layer="layer1"
     showgrid="false"
     fit-margin-top="0"
     fit-margin-left="0"
     fit-margin-right="0"
     fit-margin-bottom="0"
     inkscape:window-width="1600"
     inkscape:window-height="838"
     inkscape:window-x="-8"
     inkscape:window-y="-8"
     inkscape:window-maximized="1" />
  <metadata
     id="metadata3402">
    <rdf:RDF>
      <cc:Work
         rdf:about="">
        <dc:format>image/svg+xml</dc:format>
        <dc:type
           rdf:resource="http://purl.org/dc/dcmitype/StillImage" />
        <dc:title></dc:title>
      </cc:Work>
    </rdf:RDF>
  </metadata>
  <g
     inkscape:label="Layer 1"
     inkscape:groupmode="layer"
     id="layer1"
     transform="translate(2.9283833e-8,-907.36219)">
    <g
       id="g4283"
       style="fill:#66ff00"
       transform="matrix(0.23724715,0,0,0.23724715,-2.2336327e-8,802.69226)">
      <circle
         r="235.49449"
         cy="676.67969"
         cx="276.94806"
         id="path3405"
         style="fill:#66ff00" />
      <path
         sodipodi:nodetypes="cssssc"
         inkscape:connector-curvature="0"
         id="path3407"
         d="m 99.802911,790.98958 c 0,0 89.377939,56.45435 -1.52667,107.54076 -90.904606,51.08642 -39.77559,66.8042 -66.01625,102.56416 -26.240656,35.76 -48.423086,-96.71176 -16.4192,-148.10298 16.00194,-25.69561 44.32761,-52.59211 61.31766,-61.6687 16.99005,-9.07658 22.64446,-0.33324 22.64446,-0.33324 z"
         style="fill:#66ff00;fill-opacity:1;fill-rule:evenodd;stroke:none;stroke-width:1px;stroke-linecap:butt;stroke-linejoin:miter;stroke-opacity:1" />
      <path
         sodipodi:nodetypes="cssssc"
         inkscape:connector-curvature="0"
         id="path3407-1"
         d="m 440.25554,786.21481 c 0,0 -89.37794,56.45434 1.52667,107.54075 90.90461,51.08642 39.77559,66.8042 66.01625,102.56416 26.24066,35.75998 48.42309,-96.71176 16.4192,-148.10298 -16.00194,-25.69561 -44.32761,-52.59211 -61.31766,-61.66869 -16.99005,-9.07658 -22.64446,-0.33324 -22.64446,-0.33324 z"
         style="fill:#66ff00;fill-opacity:1;fill-rule:evenodd;stroke:none;stroke-width:1px;stroke-linecap:butt;stroke-linejoin:miter;stroke-opacity:1" />
      <path
         sodipodi:nodetypes="cssssc"
         inkscape:connector-curvature="0"
         id="path3407-1-9"
         d="m 343.11269,790.50053 c 0,0 -89.37794,56.45434 1.52667,107.54075 90.90461,51.08642 39.77559,66.8042 66.01625,102.56412 26.24066,35.76 48.42309,-96.71172 16.4192,-148.10294 -16.00194,-25.69561 -44.32761,-52.59211 -61.31766,-61.66869 -16.99005,-9.07658 -22.64446,-0.33324 -22.64446,-0.33324 z"
         style="fill:#66ff00;fill-opacity:1;fill-rule:evenodd;stroke:none;stroke-width:1px;stroke-linecap:butt;stroke-linejoin:miter;stroke-opacity:1" />
      <path
         sodipodi:nodetypes="cssssc"
         inkscape:connector-curvature="0"
         id="path3407-1-9-3"
         d="m 274.54126,836.21482 c 0,0 -89.37794,56.45434 1.52667,107.54075 90.90462,51.08642 39.77559,66.80423 66.01626,102.56413 26.24066,35.76 48.42309,-96.71173 16.4192,-148.10295 -16.00194,-25.69561 -44.32762,-52.59211 -61.31767,-61.66869 -16.99005,-9.07658 -22.64446,-0.33324 -22.64446,-0.33324 z"
         style="fill:#66ff00;fill-opacity:1;fill-rule:evenodd;stroke:none;stroke-width:1px;stroke-linecap:butt;stroke-linejoin:miter;stroke-opacity:1" />
      <path
         sodipodi:nodetypes="cssssc"
         inkscape:connector-curvature="0"
         id="path3407-1-9-39"
         d="m 189.35487,794.78624 c 0,0 89.37794,56.45434 -1.52667,107.54075 -90.904609,51.08642 -39.77559,66.8042 -66.01625,102.56411 -26.240659,35.76 -48.423089,-96.71171 -16.4192,-148.10293 16.00194,-25.69561 44.32761,-52.59211 61.31766,-61.66869 16.99005,-9.07658 22.64446,-0.33324 22.64446,-0.33324 z"
         style="fill:#66ff00;fill-opacity:1;fill-rule:evenodd;stroke:none;stroke-width:1px;stroke-linecap:butt;stroke-linejoin:miter;stroke-opacity:1" />
      <path
         sodipodi:nodetypes="cssssc"
         inkscape:connector-curvature="0"
         id="path3407-1-9-4"
         d="m 262.21202,836.21481 c 0,0 89.37794,56.45434 -1.52667,107.54075 -90.90462,51.08642 -39.77559,66.80424 -66.01626,102.56414 -26.24066,35.76 -48.42309,-96.71174 -16.4192,-148.10296 16.00194,-25.69561 44.32762,-52.59211 61.31767,-61.66869 16.99005,-9.07658 22.64446,-0.33324 22.64446,-0.33324 z"
         style="fill:#66ff00;fill-opacity:1;fill-rule:evenodd;stroke:none;stroke-width:1px;stroke-linecap:butt;stroke-linejoin:miter;stroke-opacity:1" />
    </g>
    <path
       style="fill:#ffffff;fill-opacity:1;fill-rule:evenodd;stroke:none;stroke-width:1px;stroke-linecap:butt;stroke-linejoin:miter;stroke-opacity:1"
       d="m 25.4217,955.50536 c 0,0 9.817027,-12.20403 21.77899,3.79211 11.961963,15.99615 6.315855,13.23177 0.107112,11.38042 -6.208734,-1.85133 -20.70214,-2.9306 -21.886104,-15.17253 z"
       id="path4266"
       inkscape:connector-curvature="0" />
    <path
       style="fill:#ffffff;fill-opacity:1;fill-rule:evenodd;stroke:none;stroke-width:1px;stroke-linecap:butt;stroke-linejoin:miter;stroke-opacity:1"
       d="m 103.76402,955.45695 c 0,0 -9.817032,-12.20403 -21.778994,3.79211 -11.961964,15.99614 -6.315854,13.23175 -0.107113,11.38042 6.208736,-1.85135 20.702147,-2.93062 21.886107,-15.17253 z"
       id="path4266-2"
       inkscape:connector-curvature="0" />
  </g>
</svg>
