<?xml version="1.0" encoding="UTF-8" standalone="no"?>
<!-- Created with Inkscape (http://www.inkscape.org/) -->

<svg
   xmlns:dc="http://purl.org/dc/elements/1.1/"
   xmlns:cc="http://creativecommons.org/ns#"
   xmlns:rdf="http://www.w3.org/1999/02/22-rdf-syntax-ns#"
   xmlns:svg="http://www.w3.org/2000/svg"
   xmlns="http://www.w3.org/2000/svg"
   xmlns:sodipodi="http://sodipodi.sourceforge.net/DTD/sodipodi-0.dtd"
   xmlns:inkscape="http://www.inkscape.org/namespaces/inkscape"
   width="40.922218mm"
   height="40.922226mm"
   viewBox="0 0 144.99999 145.00001"
   id="svg2"
   version="1.1"
   inkscape:version="0.91 r13725"
   sodipodi:docname="eye-con.svg">
  <defs
     id="defs4" />
  <sodipodi:namedview
     id="base"
     pagecolor="#ffffff"
     bordercolor="#666666"
     borderopacity="1.0"
     inkscape:pageopacity="0.0"
     inkscape:pageshadow="2"
     inkscape:zoom="2.8"
     inkscape:cx="45.21227"
     inkscape:cy="83.746982"
     inkscape:document-units="px"
     inkscape:current-layer="layer1"
     showgrid="false"
     fit-margin-top="0"
     fit-margin-left="0"
     fit-margin-right="0"
     fit-margin-bottom="0"
     inkscape:window-width="1600"
     inkscape:window-height="838"
     inkscape:window-x="-8"
     inkscape:window-y="-8"
     inkscape:window-maximized="1" />
  <metadata
     id="metadata7">
    <rdf:RDF>
      <cc:Work
         rdf:about="">
        <dc:format>image/svg+xml</dc:format>
        <dc:type
           rdf:resource="http://purl.org/dc/dcmitype/StillImage" />
        <dc:title></dc:title>
      </cc:Work>
    </rdf:RDF>
  </metadata>
  <g
     inkscape:label="Layer 1"
     inkscape:groupmode="layer"
     id="layer1"
     transform="translate(3.3155084e-6,-907.36218)">
    <path
       id="path4812"
       d="m 73.035712,930.03519 c -28.753974,0 -52.147429,22.75417 -52.147429,50.71986 0,27.96365 23.393455,50.71985 52.147429,50.71985 28.751868,0 52.147428,-22.7582 52.147428,-50.71985 0,-27.96569 -23.39136,-50.71986 -52.147428,-50.71986 z m 0,73.32291 c -24.365994,0 -37.504727,-22.11479 -37.504727,-22.11479 0,0 13.138733,-22.12087 37.504727,-22.12087 24.370195,0 37.502628,22.12087 37.502628,22.12087 0,0 -13.132433,22.11479 -37.502628,22.11479 z"
       inkscape:connector-curvature="0"
       style="fill:#000000" />
    <path
       id="path4814"
       d="m 73.035712,962.76707 c -10.254301,0 -18.59511,8.28307 -18.59511,18.46193 0,10.17885 8.342823,18.45592 18.59511,18.45592 10.252286,0 18.593095,-8.28307 18.593095,-18.45592 0.004,-10.17886 -8.338795,-18.46193 -18.593095,-18.46193 z m 0,30.92453 c -6.922812,0 -12.552505,-5.59138 -12.552505,-12.4586 0,-6.87523 5.631708,-12.46061 12.552505,-12.46061 6.920797,0 12.55049,5.59138 12.55049,12.46061 0.002,6.86722 -5.625665,12.4586 -12.55049,12.4586 z"
       inkscape:connector-curvature="0"
       style="fill:#000000" />
    <path
       id="path4816"
       d="m 77.662333,981.98291 c -2.475454,0 -4.481599,-1.99378 -4.481599,-4.4555 0,-2.20575 1.629489,-4.02955 3.762529,-4.37551 -1.188379,-0.56793 -2.49761,-0.9139 -3.903523,-0.9139 -4.99522,0 -9.051822,4.03355 -9.051822,8.991 0,4.96144 4.056602,8.98499 9.051822,8.98499 4.993206,0 9.051822,-4.02355 9.051822,-8.98499 0,-0.71592 -0.108766,-1.40585 -0.269903,-2.07377 -0.654615,1.65581 -2.267991,2.82768 -4.159326,2.82768 z"
       inkscape:connector-curvature="0"
       style="fill:#000000" />
    <g
       style="fill:#000000"
       id="g4818"
       transform="matrix(2.0142017,0,0,1.9997756,23.029126,931.10662)" />
    <g
       style="fill:#000000"
       id="g4820"
       transform="matrix(2.0142017,0,0,1.9997756,23.029126,931.10662)" />
    <g
       style="fill:#000000"
       id="g4822"
       transform="matrix(2.0142017,0,0,1.9997756,23.029126,931.10662)" />
    <g
       style="fill:#000000"
       id="g4824"
       transform="matrix(2.0142017,0,0,1.9997756,23.029126,931.10662)" />
    <g
       style="fill:#000000"
       id="g4826"
       transform="matrix(2.0142017,0,0,1.9997756,23.029126,931.10662)" />
    <g
       style="fill:#000000"
       id="g4828"
       transform="matrix(2.0142017,0,0,1.9997756,23.029126,931.10662)" />
    <g
       style="fill:#000000"
       id="g4830"
       transform="matrix(2.0142017,0,0,1.9997756,23.029126,931.10662)" />
    <g
       style="fill:#000000"
       id="g4832"
       transform="matrix(2.0142017,0,0,1.9997756,23.029126,931.10662)" />
    <g
       style="fill:#000000"
       id="g4834"
       transform="matrix(2.0142017,0,0,1.9997756,23.029126,931.10662)" />
    <g
       style="fill:#000000"
       id="g4836"
       transform="matrix(2.0142017,0,0,1.9997756,23.029126,931.10662)" />
    <g
       style="fill:#000000"
       id="g4838"
       transform="matrix(2.0142017,0,0,1.9997756,23.029126,931.10662)" />
    <g
       style="fill:#000000"
       id="g4840"
       transform="matrix(2.0142017,0,0,1.9997756,23.029126,931.10662)" />
    <g
       style="fill:#000000"
       id="g4842"
       transform="matrix(2.0142017,0,0,1.9997756,23.029126,931.10662)" />
    <g
       style="fill:#000000"
       id="g4844"
       transform="matrix(2.0142017,0,0,1.9997756,23.029126,931.10662)" />
    <g
       style="fill:#000000"
       id="g4846"
       transform="matrix(2.0142017,0,0,1.9997756,23.029126,931.10662)" />
  </g>
</svg>
