<?xml version="1.0" encoding="UTF-8" standalone="no"?>
<!-- Generator: Adobe Illustrator 18.1.1, SVG Export Plug-In . SVG Version: 6.00 Build 0)  -->

<svg
   xmlns:dc="http://purl.org/dc/elements/1.1/"
   xmlns:cc="http://creativecommons.org/ns#"
   xmlns:rdf="http://www.w3.org/1999/02/22-rdf-syntax-ns#"
   xmlns:svg="http://www.w3.org/2000/svg"
   xmlns="http://www.w3.org/2000/svg"
   xmlns:sodipodi="http://sodipodi.sourceforge.net/DTD/sodipodi-0.dtd"
   xmlns:inkscape="http://www.inkscape.org/namespaces/inkscape"
   version="1.1"
   id="Capa_1"
   x="0px"
   y="0px"
   viewBox="0 0 612 612"
   style="enable-background:new 0 0 612 612;"
   xml:space="preserve"
   inkscape:version="0.91 r13725"
   sodipodi:docname="home9.svg"><metadata
     id="metadata45"><rdf:RDF><cc:Work
         rdf:about=""><dc:format>image/svg+xml</dc:format><dc:type
           rdf:resource="http://purl.org/dc/dcmitype/StillImage" /></cc:Work></rdf:RDF></metadata><defs
     id="defs43" /><sodipodi:namedview
     pagecolor="#ffffff"
     bordercolor="#666666"
     borderopacity="1"
     objecttolerance="10"
     gridtolerance="10"
     guidetolerance="10"
     inkscape:pageopacity="0"
     inkscape:pageshadow="2"
     inkscape:window-width="1600"
     inkscape:window-height="838"
     id="namedview41"
     showgrid="false"
     inkscape:zoom="0.38562092"
     inkscape:cx="-76.5"
     inkscape:cy="306"
     inkscape:window-x="-8"
     inkscape:window-y="-8"
     inkscape:window-maximized="1"
     inkscape:current-layer="Capa_1" /><ellipse
     style="fill:#5599ff;fill-rule:evenodd;stroke:none;stroke-width:0.81152743px;stroke-linecap:butt;stroke-linejoin:miter;stroke-opacity:1"
     id="path3373"
     cx="308.5932"
     cy="308.5932"
     rx="306.29706"
     ry="308.89029" /><g
     id="g3"
     style="fill:#ffffff"
     transform="matrix(0.88559311,0,0,0.86881333,36.305097,20.693968)"><g
       id="g5"
       style="fill:#ffffff"><path
         d="m 74.165,294.769 0,9.483 0,268.608 244.512,0 0,-205.519 129.282,0 0,205.512 87.592,0 0,-268.6 0,-9.483 L 304.858,122.543 74.165,294.769 Z m 176.575,180.93 -108.352,0 0,-108.358 108.358,0 0,108.358 -0.006,0 z"
         id="path7"
         style="fill:#ffffff"
         inkscape:connector-curvature="0" /><path
         d="m 605.726,259.844 -69.035,-45.952 c 0,-58.911 0,-127.232 0,-127.232 l -80.915,0 c 0,0 0,29.529 0,66.486 L 303.912,39.14 6.191,259.892 c -6.897,5.251 -8.233,15.1 -2.988,21.991 5.245,6.897 15.088,8.245 21.991,2.988 L 304.034,78.468 586.887,284.932 c 2.824,2.122 6.129,3.141 9.41,3.141 4.763,0 9.477,-2.165 12.563,-6.269 5.196,-6.928 3.8,-16.758 -3.134,-21.96 z"
         id="path9"
         style="fill:#ffffff"
         inkscape:connector-curvature="0" /></g></g><g
     id="g11" /><g
     id="g13" /><g
     id="g15" /><g
     id="g17" /><g
     id="g19" /><g
     id="g21" /><g
     id="g23" /><g
     id="g25" /><g
     id="g27" /><g
     id="g29" /><g
     id="g31" /><g
     id="g33" /><g
     id="g35" /><g
     id="g37" /><g
     id="g39" /></svg>