<?xml version="1.0" encoding="UTF-8" standalone="no"?>
<!-- Generator: Adobe Illustrator 16.0.0, SVG Export Plug-In . SVG Version: 6.00 Build 0)  -->

<svg
   xmlns:dc="http://purl.org/dc/elements/1.1/"
   xmlns:cc="http://creativecommons.org/ns#"
   xmlns:rdf="http://www.w3.org/1999/02/22-rdf-syntax-ns#"
   xmlns:svg="http://www.w3.org/2000/svg"
   xmlns="http://www.w3.org/2000/svg"
   xmlns:sodipodi="http://sodipodi.sourceforge.net/DTD/sodipodi-0.dtd"
   xmlns:inkscape="http://www.inkscape.org/namespaces/inkscape"
   version="1.1"
   id="Capa_1"
   x="0px"
   y="0px"
   width="145"
   height="145"
   viewBox="0 0 145 145"
   xml:space="preserve"
   inkscape:version="0.91 r13725"
   sodipodi:docname="island.svg"><metadata
     id="metadata41"><rdf:RDF><cc:Work
         rdf:about=""><dc:format>image/svg+xml</dc:format><dc:type
           rdf:resource="http://purl.org/dc/dcmitype/StillImage" /><dc:title></dc:title></cc:Work></rdf:RDF></metadata><defs
     id="defs39" /><sodipodi:namedview
     pagecolor="#ffffff"
     bordercolor="#666666"
     borderopacity="1"
     objecttolerance="10"
     gridtolerance="10"
     guidetolerance="10"
     inkscape:pageopacity="0"
     inkscape:pageshadow="2"
     inkscape:window-width="1600"
     inkscape:window-height="838"
     id="namedview37"
     showgrid="false"
     fit-margin-top="0"
     fit-margin-left="0"
     fit-margin-right="0"
     fit-margin-bottom="0"
     inkscape:zoom="1.293009"
     inkscape:cx="-112.93611"
     inkscape:cy="86.276613"
     inkscape:window-x="-8"
     inkscape:window-y="-8"
     inkscape:window-maximized="1"
     inkscape:current-layer="Capa_1" /><ellipse
     style="fill:#ffff00;fill-opacity:1;stroke:none;stroke-opacity:1"
     id="path4171"
     cx="72.301346"
     cy="-72.311951"
     rx="71.992622"
     ry="71.992615"
     transform="matrix(0,1,-1,0,0,0)" /><g
     id="g3"
     transform="matrix(3.6742145,0,0,3.1773236,-11.325992,0.01866927)"
     style="fill:#000000;fill-opacity:1"><path
       d="m 42.295,43.851 c -2.729,-3.229 -7.619,-5.691 -13.529,-6.696 -0.578,-3.461 -1.61,-5.078 -1.637,-5.123 0.45,-0.211 0.993,-0.283 1.613,-0.146 0.756,0.17 1.272,0.571 1.585,1.079 0.091,0.148 0.323,0.098 0.35,-0.074 0.039,-0.252 0.027,-0.527 -0.059,-0.832 -0.216,-0.759 -0.807,-1.39 -1.577,-1.556 -0.503,-0.107 -1.003,-0.024 -1.425,0.2 0.391,-0.338 0.878,-0.614 1.471,-0.807 1.28,-0.41 2.396,-0.21 3.264,0.344 0.147,0.093 0.327,-0.042 0.28,-0.21 -0.145,-0.521 -0.432,-1.032 -0.964,-1.501 -0.896,-0.788 -2.143,-1.13 -3.276,-0.755 -0.365,0.121 -0.697,0.301 -0.986,0.524 0.021,-0.027 0.044,-0.055 0.065,-0.081 0.835,-0.981 1.838,-1.405 2.827,-1.429 0.215,-0.005 0.311,-0.284 0.146,-0.423 -0.351,-0.292 -0.783,-0.522 -1.344,-0.642 -1.262,-0.269 -2.59,0.109 -3.392,1.119 -0.288,0.361 -0.488,0.768 -0.604,1.188 -0.34,-0.275 -0.738,-0.488 -1.184,-0.614 -1.24,-0.352 -2.539,0.116 -3.407,1.069 -0.375,0.411 -0.592,0.84 -0.707,1.269 -0.06,0.221 0.194,0.4 0.385,0.274 0.813,-0.544 1.864,-0.776 3.101,-0.47 0.034,0.01 0.067,0.019 0.101,0.027 -0.365,-0.014 -0.739,0.034 -1.108,0.149 -1.139,0.355 -1.953,1.359 -2.222,2.522 -0.154,0.67 -0.098,1.239 0.076,1.735 0.063,0.18 0.311,0.184 0.385,0.008 0.391,-0.938 1.174,-1.731 2.434,-2.136 0.593,-0.191 1.15,-0.25 1.664,-0.204 -0.475,0.063 -0.929,0.288 -1.274,0.669 -0.53,0.584 -0.641,1.439 -0.374,2.183 0.107,0.3 0.261,0.532 0.441,0.715 0.12,0.123 0.336,0.029 0.323,-0.142 -0.045,-0.597 0.142,-1.217 0.657,-1.797 0.397,-0.445 0.849,-0.731 1.307,-0.795 l 0,0 c -0.001,0 0.725,1.783 0.826,4.356 -1.209,-0.124 -2.451,-0.193 -3.719,-0.193 -3.105,0 -6.058,0.387 -8.73,1.088 0.554,-12.073 7.984,-20.071 7.993,-20.111 l 0,-0.001 c 0.915,0.605 1.688,1.532 2.188,2.833 0.651,1.69 0.539,3.221 -0.05,4.485 -0.169,0.362 0.227,0.745 0.591,0.576 0.544,-0.252 1.069,-0.633 1.551,-1.198 1.193,-1.401 1.656,-3.363 0.979,-5.073 -0.442,-1.116 -1.251,-1.979 -2.232,-2.51 1.16,0.322 2.329,0.909 3.468,1.812 2.418,1.921 3.475,4.301 3.558,6.666 0.016,0.444 0.561,0.643 0.846,0.301 0.787,-0.94 1.38,-2.138 1.593,-3.729 0.37,-2.761 -0.58,-5.622 -2.775,-7.337 -0.71,-0.556 -1.487,-0.967 -2.297,-1.239 0.081,0.008 0.161,0.017 0.243,0.025 2.952,0.345 5.058,1.715 6.386,3.572 0.31,0.433 1.013,0.248 1.063,-0.281 C 37.286,15.502 37.162,14.388 36.682,13.18 35.572,10.384 33.12,8.296 30.121,8.042 29.045,7.951 27.998,8.087 27.03,8.408 27.125,7.392 27.019,6.345 26.688,5.319 25.765,2.455 23.178,0.538 20.204,0.085 c -1.319,-0.2 -2.458,-0.056 -3.46,0.296 -0.474,0.166 -0.496,0.855 -0.031,1.043 2.142,0.864 3.983,2.612 4.999,5.444 0.028,0.077 0.054,0.154 0.079,0.23 C 21.343,6.371 20.767,5.706 20.065,5.141 17.898,3.39 14.896,3.111 12.291,4.094 10.743,4.678 9.695,5.562 8.952,6.578 c -0.24,0.328 0.042,0.771 0.439,0.688 2.354,-0.491 4.952,-0.016 7.408,1.938 1.138,0.904 1.975,1.909 2.551,2.968 -0.738,-0.838 -1.763,-1.43 -2.95,-1.607 -1.819,-0.273 -3.626,0.62 -4.721,2.101 -0.439,0.592 -0.689,1.185 -0.813,1.768 -0.084,0.396 0.383,0.698 0.703,0.449 1.098,-0.854 2.559,-1.305 4.348,-1.053 1.469,0.207 2.596,0.81 3.404,1.641 -0.144,0.123 -9.108,6.812 -14.981,27.292 -0.358,0.34 -0.691,0.694 -0.997,1.056 -0.602,0.713 -0.093,1.811 0.838,1.811 l 37.266,0 c 0.917,0.005 1.441,-1.077 0.848,-1.779 z"
       id="path5"
       inkscape:connector-curvature="0"
       style="fill:#000000;fill-opacity:1" /></g><g
     id="g7"
     transform="translate(-3.0825614,99.369982)" /><g
     id="g9"
     transform="translate(-3.0825614,99.369982)" /><g
     id="g11"
     transform="translate(-3.0825614,99.369982)" /><g
     id="g13"
     transform="translate(-3.0825614,99.369982)" /><g
     id="g15"
     transform="translate(-3.0825614,99.369982)" /><g
     id="g17"
     transform="translate(-3.0825614,99.369982)" /><g
     id="g19"
     transform="translate(-3.0825614,99.369982)" /><g
     id="g21"
     transform="translate(-3.0825614,99.369982)" /><g
     id="g23"
     transform="translate(-3.0825614,99.369982)" /><g
     id="g25"
     transform="translate(-3.0825614,99.369982)" /><g
     id="g27"
     transform="translate(-3.0825614,99.369982)" /><g
     id="g29"
     transform="translate(-3.0825614,99.369982)" /><g
     id="g31"
     transform="translate(-3.0825614,99.369982)" /><g
     id="g33"
     transform="translate(-3.0825614,99.369982)" /><g
     id="g35"
     transform="translate(-3.0825614,99.369982)" /></svg>