<?xml version="1.0" encoding="UTF-8" standalone="no"?>
<!-- Generator: Adobe Illustrator 18.0.0, SVG Export Plug-In . SVG Version: 6.00 Build 0)  -->

<svg
   xmlns:dc="http://purl.org/dc/elements/1.1/"
   xmlns:cc="http://creativecommons.org/ns#"
   xmlns:rdf="http://www.w3.org/1999/02/22-rdf-syntax-ns#"
   xmlns:svg="http://www.w3.org/2000/svg"
   xmlns="http://www.w3.org/2000/svg"
   xmlns:sodipodi="http://sodipodi.sourceforge.net/DTD/sodipodi-0.dtd"
   xmlns:inkscape="http://www.inkscape.org/namespaces/inkscape"
   version="1.1"
   id="Capa_1"
   x="0px"
   y="0px"
   viewBox="0 0 493.96 493.96"
   style="enable-background:new 0 0 493.96 493.96;"
   xml:space="preserve"
   inkscape:version="0.91 r13725"
   sodipodi:docname="time92.svg"><metadata
     id="metadata4934"><rdf:RDF><cc:Work
         rdf:about=""><dc:format>image/svg+xml</dc:format><dc:type
           rdf:resource="http://purl.org/dc/dcmitype/StillImage" /><dc:title /></cc:Work></rdf:RDF></metadata><defs
     id="defs4932"><clipPath
       clipPathUnits="userSpaceOnUse"
       id="clipPath5492"><ellipse
         style="opacity:0.58999999;fill:#ff0000;stroke:#000000;stroke-width:0;stroke-miterlimit:4;stroke-dasharray:none;stroke-opacity:1"
         id="ellipse5494"
         cx="251.16612"
         cy="232.32864"
         rx="214.10258"
         ry="231.89351" /></clipPath><clipPath
       clipPathUnits="userSpaceOnUse"
       id="clipPath5496"><ellipse
         style="opacity:0.58999999;fill:#ff0000;stroke:#000000;stroke-width:0;stroke-miterlimit:4;stroke-dasharray:none;stroke-opacity:1"
         id="ellipse5498"
         cx="251.16612"
         cy="232.32864"
         rx="214.10258"
         ry="231.89351" /></clipPath></defs><sodipodi:namedview
     pagecolor="#ffffff"
     bordercolor="#666666"
     borderopacity="1"
     objecttolerance="10"
     gridtolerance="10"
     guidetolerance="10"
     inkscape:pageopacity="0"
     inkscape:pageshadow="2"
     inkscape:window-width="1600"
     inkscape:window-height="838"
     id="namedview4930"
     showgrid="false"
     inkscape:zoom="0.47777149"
     inkscape:cx="-370.46999"
     inkscape:cy="246.98"
     inkscape:window-x="-8"
     inkscape:window-y="-8"
     inkscape:window-maximized="1"
     inkscape:current-layer="Capa_1" /><g
     id="g4894"
     clip-path="url(#clipPath5496)"
     transform="translate(2.0930508,18.837457)"
     style="fill:#aa4400"><path
       d="m 246.98,47.472 c -33.527,0 -60.803,27.277 -60.803,60.805 0,33.526 27.276,60.802 60.803,60.802 33.527,0 60.803,-27.275 60.803,-60.802 0,-33.528 -27.276,-60.805 -60.803,-60.805 z m 9.99,63.188 c 0,5.522 -4.477,10 -10,10 l -22,0 c -5.523,0 -10,-4.478 -10,-10 0,-5.522 4.477,-10 10,-10 l 12,0 0,-20 c 0,-5.522 4.477,-10 10,-10 5.523,0 10,4.478 10,10 l 0,30 z"
       id="path4896"
       inkscape:connector-curvature="0"
       style="fill:#aa4400" /><path
       d="m 368.38,473.96 -13.125,0 0,-365.684 C 355.256,48.477 306.78,0 246.98,0 187.182,0 138.704,48.475 138.704,108.276 l 0,365.684 -13.124,0 c -5.523,0 -10,4.478 -10,10 0,5.522 4.477,10 10,10 l 242.8,0 c 5.523,0 10,-4.478 10,-10 0,-5.522 -4.477,-10 -10,-10 z M 222.929,378.475 c 8.804,5.069 13.798,15.181 12.155,25.822 -2.135,13.828 -15.075,23.307 -28.902,21.171 -13.828,-2.135 -23.306,-15.075 -21.171,-28.902 1.572,-10.183 9.007,-18 18.337,-20.565 l 28.757,-188.318 c -37.471,-7.005 -65.928,-39.935 -65.928,-79.406 0,-44.556 36.248,-80.805 80.803,-80.805 44.555,0 80.803,36.249 80.803,80.805 0,42.815 -33.478,77.94 -75.628,80.618 l -29.226,189.58 z"
       id="path4898"
       inkscape:connector-curvature="0"
       style="fill:#aa4400" /></g><g
     id="g4900" /><g
     id="g4902" /><g
     id="g4904" /><g
     id="g4906" /><g
     id="g4908" /><g
     id="g4910" /><g
     id="g4912" /><g
     id="g4914" /><g
     id="g4916" /><g
     id="g4918" /><g
     id="g4920" /><g
     id="g4922" /><g
     id="g4924" /><g
     id="g4926" /><g
     id="g4928" /><circle
     style="opacity:0;fill:#000000;stroke-width:0;stroke-miterlimit:4;stroke-dasharray:none"
     id="path5484"
     cx="782.80103"
     cy="170.58365"
     r="274.58282" /><circle
     style="opacity:0;fill:#ff0000;stroke-width:0;stroke-miterlimit:4;stroke-dasharray:none;stroke:#000000;stroke-opacity:1"
     id="path5488"
     cx="245.93347"
     cy="206.16551"
     r="249.70105"
     clip-path="url(#clipPath5492)" /></svg>